<svg xmlns="http://www.w3.org/2000/svg" width="1640" height="1000" viewBox="0 0 1640 1000"
  font-family="'PingFang SC','Microsoft YaHei',Arial,sans-serif">
<defs>
  <marker id="arr" markerWidth="8" markerHeight="6" refX="7" refY="3" orient="auto">
    <polygon points="0 0,8 3,0 6" fill="#64748b"/>
  </marker>
  <marker id="arr_r" markerWidth="8" markerHeight="6" refX="7" refY="3" orient="auto">
    <polygon points="0 0,8 3,0 6" fill="#f87171"/>
  </marker>
  <filter id="sh"><feDropShadow dx="0" dy="2" stdDeviation="3" flood-color="#00000033"/></filter>
</defs>
<rect width="1640" height="1000" fill="#0d1117"/>
<text x="820" y="38" text-anchor="middle" font-size="19" font-weight="bold" fill="#f1f5f9" letter-spacing="2">全民参保手机看板 — 指标关系图</text>
<text x="820" y="58" text-anchor="middle" font-size="11" fill="#475569">数据流方向：原始数据 → 基础统计 → 核心指标 → 派生预警 → 看板展示</text>

<rect x="34" y="72" width="192" height="918" rx="10" fill="#0f172a18" stroke="#38bdf825" stroke-width="1"/>
<rect x="34" y="72" width="192" height="28" rx="8" fill="#0f172a"/>
<text x="130" y="91" text-anchor="middle" font-size="11" font-weight="bold" fill="#38bdf8">① 原始数据层</text>
<rect x="304" y="72" width="192" height="918" rx="10" fill="#1e3a8a10" stroke="#93c5fd25" stroke-width="1"/>
<rect x="304" y="72" width="192" height="28" rx="8" fill="#1e3a8a"/>
<text x="400" y="91" text-anchor="middle" font-size="11" font-weight="bold" fill="#93c5fd">② 基础统计层</text>
<rect x="634" y="72" width="192" height="918" rx="10" fill="#14532d10" stroke="#4ade8025" stroke-width="1"/>
<rect x="634" y="72" width="192" height="28" rx="8" fill="#14532d"/>
<text x="730" y="91" text-anchor="middle" font-size="11" font-weight="bold" fill="#4ade80">③ 核心指标层</text>
<rect x="964" y="72" width="192" height="918" rx="10" fill="#991b1b10" stroke="#fca5a525" stroke-width="1"/>
<rect x="964" y="72" width="192" height="28" rx="8" fill="#991b1b"/>
<text x="1060" y="91" text-anchor="middle" font-size="11" font-weight="bold" fill="#fca5a5">④ 派生预警层</text>
<rect x="1284" y="72" width="192" height="918" rx="10" fill="#5b21b610" stroke="#c4b5fd25" stroke-width="1"/>
<rect x="1284" y="72" width="192" height="28" rx="8" fill="#5b21b6"/>
<text x="1380" y="91" text-anchor="middle" font-size="11" font-weight="bold" fill="#c4b5fd">⑤ 看板展示层</text>
<path d="M214,160 C265.0,160 265.0,95 316,95" fill="none" stroke="#47556955" stroke-width="1.4" marker-end="url(#arr)"/>
<path d="M214,160 C265.0,160 265.0,190 316,190" fill="none" stroke="#47556955" stroke-width="1.4" marker-end="url(#arr)"/>
<path d="M214,160 C265.0,160 265.0,285 316,285" fill="none" stroke="#47556955" stroke-width="1.4" marker-end="url(#arr)"/>
<path d="M214,160 C265.0,160 265.0,380 316,380" fill="none" stroke="#47556955" stroke-width="1.4" marker-end="url(#arr)"/>
<path d="M214,160 C265.0,160 265.0,480 316,480" fill="none" stroke="#47556955" stroke-width="1.4" marker-end="url(#arr)"/>
<path d="M214,160 C265.0,160 265.0,590 316,590" fill="none" stroke="#47556955" stroke-width="1.4" marker-end="url(#arr)"/>
<path d="M214,160 C265.0,160 265.0,690 316,690" fill="none" stroke="#47556955" stroke-width="1.4" marker-end="url(#arr)"/>
<path d="M214,450 C265.0,450 265.0,790 316,790" fill="none" stroke="#47556955" stroke-width="1.4" marker-end="url(#arr)"/>
<path d="M214,450 C265.0,450 265.0,885 316,885" fill="none" stroke="#47556955" stroke-width="1.4" marker-end="url(#arr)"/>
<path d="M214,710 C265.0,710 265.0,480 316,480" fill="none" stroke="#47556955" stroke-width="1.4" marker-end="url(#arr)"/>
<path d="M214,710 C265.0,710 265.0,590 316,590" fill="none" stroke="#47556955" stroke-width="1.4" marker-end="url(#arr)"/>
<path d="M214,710 C265.0,710 265.0,690 316,690" fill="none" stroke="#47556955" stroke-width="1.4" marker-end="url(#arr)"/>
<path d="M484,95 C565.0,95 565.0,95 646,95" fill="none" stroke="#47556955" stroke-width="1.4" marker-end="url(#arr)"/>
<path d="M484,190 C565.0,190 565.0,95 646,95" fill="none" stroke="#47556955" stroke-width="1.4" marker-end="url(#arr)"/>
<path d="M484,95 C565.0,95 565.0,210 646,210" fill="none" stroke="#47556955" stroke-width="1.4" marker-end="url(#arr)"/>
<path d="M814,95 C730.0,95 730.0,210 646,210" fill="none" stroke="#47556955" stroke-width="1.4" marker-end="url(#arr)"/>
<path d="M814,95 C730.0,95 730.0,330 646,330" fill="none" stroke="#47556955" stroke-width="1.4" marker-end="url(#arr)"/>
<path d="M484,95 C565.0,95 565.0,330 646,330" fill="none" stroke="#47556955" stroke-width="1.4" marker-end="url(#arr)"/>
<path d="M484,285 C565.0,285 565.0,450 646,450" fill="none" stroke="#47556955" stroke-width="1.4" marker-end="url(#arr)"/>
<path d="M484,380 C565.0,380 565.0,450 646,450" fill="none" stroke="#47556955" stroke-width="1.4" marker-end="url(#arr)"/>
<path d="M484,480 C565.0,480 565.0,570 646,570" fill="none" stroke="#47556955" stroke-width="1.4" marker-end="url(#arr)"/>
<path d="M484,690 C565.0,690 565.0,685 646,685" fill="none" stroke="#47556955" stroke-width="1.4" marker-end="url(#arr)"/>
<path d="M484,790 C565.0,790 565.0,790 646,790" fill="none" stroke="#47556955" stroke-width="1.4" marker-end="url(#arr)"/>
<path d="M484,790 C565.0,790 565.0,885 646,885" fill="none" stroke="#47556955" stroke-width="1.4" marker-end="url(#arr)"/>
<path d="M814,450 C895.0,450 895.0,185 976,185" fill="none" stroke="#f8717155" stroke-width="1.4" marker-end="url(#arr_r)"/>
<path d="M814,330 C895.0,330 895.0,185 976,185" fill="none" stroke="#f8717155" stroke-width="1.4" marker-end="url(#arr_r)"/>
<path d="M484,885 C730.0,885 730.0,370 976,370" fill="none" stroke="#f8717155" stroke-width="1.4" marker-end="url(#arr_r)"/>
<path d="M484,590 C730.0,590 730.0,555 976,555" fill="none" stroke="#f8717155" stroke-width="1.4" marker-end="url(#arr_r)"/>
<path d="M814,685 C895.0,685 895.0,740 976,740" fill="none" stroke="#f8717155" stroke-width="1.4" marker-end="url(#arr_r)"/>
<path d="M814,790 C895.0,790 895.0,740 976,740" fill="none" stroke="#f8717155" stroke-width="1.4" marker-end="url(#arr_r)"/>
<path d="M814,885 C895.0,885 895.0,740 976,740" fill="none" stroke="#f8717155" stroke-width="1.4" marker-end="url(#arr_r)"/>
<path d="M814,210 C1055.0,210 1055.0,185 1296,185" fill="none" stroke="#47556955" stroke-width="1.4" marker-end="url(#arr)"/>
<path d="M814,330 C1055.0,330 1055.0,185 1296,185" fill="none" stroke="#47556955" stroke-width="1.4" marker-end="url(#arr)"/>
<path d="M814,450 C1055.0,450 1055.0,185 1296,185" fill="none" stroke="#47556955" stroke-width="1.4" marker-end="url(#arr)"/>
<path d="M1144,185 C1220.0,185 1220.0,370 1296,370" fill="none" stroke="#f8717155" stroke-width="1.4" marker-end="url(#arr_r)"/>
<path d="M1144,370 C1220.0,370 1220.0,370 1296,370" fill="none" stroke="#f8717155" stroke-width="1.4" marker-end="url(#arr_r)"/>
<path d="M1144,555 C1220.0,555 1220.0,370 1296,370" fill="none" stroke="#f8717155" stroke-width="1.4" marker-end="url(#arr_r)"/>
<path d="M814,570 C1055.0,570 1055.0,555 1296,555" fill="none" stroke="#47556955" stroke-width="1.4" marker-end="url(#arr)"/>
<path d="M1144,740 C1220.0,740 1220.0,740 1296,740" fill="none" stroke="#f8717155" stroke-width="1.4" marker-end="url(#arr_r)"/>
<rect x="46" y="131" width="168" height="58" rx="6" fill="#0f172a" filter="url(#sh)"/>
<rect x="46" y="131" width="4" height="58" rx="3" fill="#38bdf8"/>
<text x="60" y="145" font-size="11" font-weight="bold" fill="#f8fafc">residents 表</text>
<text x="60" y="163" font-size="9" fill="#94a3b8">居民数据 · 25 字段</text>
<rect x="46" y="421" width="168" height="58" rx="6" fill="#0f172a" filter="url(#sh)"/>
<rect x="46" y="421" width="4" height="58" rx="3" fill="#38bdf8"/>
<text x="60" y="435" font-size="11" font-weight="bold" fill="#f8fafc">enterprises 表</text>
<text x="60" y="453" font-size="9" fill="#94a3b8">企业数据 · 13 字段</text>
<rect x="46" y="681" width="168" height="58" rx="6" fill="#0f172a" filter="url(#sh)"/>
<rect x="46" y="681" width="4" height="58" rx="3" fill="#38bdf8"/>
<text x="60" y="695" font-size="11" font-weight="bold" fill="#f8fafc">dictionaries 表</text>
<text x="60" y="713" font-size="9" fill="#94a3b8">枚举字典 · 16 分类</text>
<rect x="316" y="66" width="168" height="58" rx="6" fill="#1e3a8a" filter="url(#sh)"/>
<rect x="316" y="66" width="4" height="58" rx="3" fill="#93c5fd"/>
<text x="330" y="80" font-size="11" font-weight="bold" fill="#eff6ff">已参保人数</text>
<text x="330" y="98" font-size="9" fill="#93c5fd">this_year_paid = 1</text>
<rect x="316" y="161" width="168" height="58" rx="6" fill="#1e3a8a" filter="url(#sh)"/>
<rect x="316" y="161" width="4" height="58" rx="3" fill="#93c5fd"/>
<text x="330" y="175" font-size="11" font-weight="bold" fill="#eff6ff">人口总数</text>
<text x="330" y="193" font-size="9" fill="#93c5fd">居民表全量行数</text>
<rect x="316" y="256" width="168" height="58" rx="6" fill="#1e3a8a" filter="url(#sh)"/>
<rect x="316" y="256" width="4" height="58" rx="3" fill="#93c5fd"/>
<text x="330" y="270" font-size="11" font-weight="bold" fill="#eff6ff">存量可动员</text>
<text x="330" y="288" font-size="9" fill="#93c5fd">stock_change_type=可动员</text>
<rect x="316" y="351" width="168" height="58" rx="6" fill="#1e3a8a" filter="url(#sh)"/>
<rect x="316" y="351" width="4" height="58" rx="3" fill="#93c5fd"/>
<text x="330" y="365" font-size="11" font-weight="bold" fill="#eff6ff">增量可动员</text>
<text x="330" y="383" font-size="9" fill="#93c5fd">辖区新增潜在对象</text>
<rect x="316" y="451" width="168" height="58" rx="6" fill="#1e3a8a" filter="url(#sh)"/>
<rect x="316" y="451" width="4" height="58" rx="3" fill="#93c5fd"/>
<text x="330" y="465" font-size="11" font-weight="bold" fill="#eff6ff">年龄段分组</text>
<text x="330" y="483" font-size="9" fill="#93c5fd">按5段分类计数</text>
<rect x="316" y="561" width="168" height="58" rx="6" fill="#1e3a8a" filter="url(#sh)"/>
<rect x="316" y="561" width="4" height="58" rx="3" fill="#93c5fd"/>
<text x="330" y="575" font-size="11" font-weight="bold" fill="#eff6ff">停保流向</text>
<text x="330" y="593" font-size="9" fill="#93c5fd">pause_flow 字段统计</text>
<rect x="316" y="661" width="168" height="58" rx="6" fill="#1e3a8a" filter="url(#sh)"/>
<rect x="316" y="661" width="4" height="58" rx="3" fill="#93c5fd"/>
<text x="330" y="675" font-size="11" font-weight="bold" fill="#eff6ff">职工参保类型</text>
<text x="330" y="693" font-size="9" fill="#93c5fd">staff_big/detail_type</text>
<rect x="316" y="761" width="168" height="58" rx="6" fill="#1e3a8a" filter="url(#sh)"/>
<rect x="316" y="761" width="4" height="58" rx="3" fill="#93c5fd"/>
<text x="330" y="775" font-size="11" font-weight="bold" fill="#eff6ff">单位参保数</text>
<text x="330" y="793" font-size="9" fill="#93c5fd">staff_insured + 上月</text>
<rect x="316" y="856" width="168" height="58" rx="6" fill="#1e3a8a" filter="url(#sh)"/>
<rect x="316" y="856" width="4" height="58" rx="3" fill="#93c5fd"/>
<text x="330" y="870" font-size="11" font-weight="bold" fill="#eff6ff">企业风险分级</text>
<text x="330" y="888" font-size="9" fill="#93c5fd">risk = 高 / 中 / 低</text>
<rect x="646" y="66" width="168" height="58" rx="6" fill="#14532d" filter="url(#sh)"/>
<rect x="646" y="66" width="4" height="58" rx="3" fill="#4ade80"/>
<text x="660" y="80" font-size="11" font-weight="bold" fill="#f0fdf4">参保目标</text>
<text x="660" y="98" font-size="9" fill="#4ade80">max(人口×92%, 已参保)</text>
<rect x="646" y="181" width="168" height="58" rx="6" fill="#14532d" filter="url(#sh)"/>
<rect x="646" y="181" width="4" height="58" rx="3" fill="#4ade80"/>
<text x="660" y="195" font-size="11" font-weight="bold" fill="#f0fdf4">参保完成率</text>
<text x="660" y="213" font-size="9" fill="#4ade80">done ÷ target × 100%</text>
<rect x="646" y="301" width="168" height="58" rx="6" fill="#14532d" filter="url(#sh)"/>
<rect x="646" y="301" width="4" height="58" rx="3" fill="#4ade80"/>
<text x="660" y="315" font-size="11" font-weight="bold" fill="#f0fdf4">待参保缺口</text>
<text x="660" y="333" font-size="9" fill="#4ade80">max(target − done, 0)</text>
<rect x="646" y="421" width="168" height="58" rx="6" fill="#14532d" filter="url(#sh)"/>
<rect x="646" y="421" width="4" height="58" rx="3" fill="#4ade80"/>
<text x="660" y="435" font-size="11" font-weight="bold" fill="#f0fdf4">可动员总数</text>
<text x="660" y="453" font-size="9" fill="#4ade80">存量 + 增量</text>
<rect x="646" y="541" width="168" height="58" rx="6" fill="#14532d" filter="url(#sh)"/>
<rect x="646" y="541" width="4" height="58" rx="3" fill="#4ade80"/>
<text x="660" y="555" font-size="11" font-weight="bold" fill="#f0fdf4">年龄分层指标</text>
<text x="660" y="573" font-size="9" fill="#4ade80">5段×人数/占比/参保率/性别</text>
<rect x="646" y="656" width="168" height="58" rx="6" fill="#14532d" filter="url(#sh)"/>
<rect x="646" y="656" width="4" height="58" rx="3" fill="#4ade80"/>
<text x="660" y="670" font-size="11" font-weight="bold" fill="#f0fdf4">职工类型分布</text>
<text x="660" y="688" font-size="9" fill="#4ade80">big_type / detail_type</text>
<rect x="646" y="761" width="168" height="58" rx="6" fill="#14532d" filter="url(#sh)"/>
<rect x="646" y="761" width="4" height="58" rx="3" fill="#4ade80"/>
<text x="660" y="775" font-size="11" font-weight="bold" fill="#f0fdf4">单位参保率</text>
<text x="660" y="793" font-size="9" fill="#4ade80">insured ÷ total × 100%</text>
<rect x="646" y="856" width="168" height="58" rx="6" fill="#14532d" filter="url(#sh)"/>
<rect x="646" y="856" width="4" height="58" rx="3" fill="#4ade80"/>
<text x="660" y="870" font-size="11" font-weight="bold" fill="#f0fdf4">单位月环比</text>
<text x="660" y="888" font-size="9" fill="#4ade80">(本月 − 上月) ÷ 上月</text>
<rect x="976" y="156" width="168" height="58" rx="6" fill="#991b1b" filter="url(#sh)"/>
<rect x="976" y="156" width="4" height="58" rx="3" fill="#fca5a5"/>
<text x="990" y="170" font-size="11" font-weight="bold" fill="#fff1f2">风险预警标志</text>
<text x="990" y="188" font-size="9" fill="#fca5a5">mobilizable &lt; gap_res</text>
<rect x="976" y="341" width="168" height="58" rx="6" fill="#991b1b" filter="url(#sh)"/>
<rect x="976" y="341" width="4" height="58" rx="3" fill="#fca5a5"/>
<text x="990" y="355" font-size="11" font-weight="bold" fill="#fff1f2">高/中风险企业</text>
<text x="990" y="373" font-size="9" fill="#fca5a5">企业风险数量统计</text>
<rect x="976" y="526" width="168" height="58" rx="6" fill="#991b1b" filter="url(#sh)"/>
<rect x="976" y="526" width="4" height="58" rx="3" fill="#fca5a5"/>
<text x="990" y="540" font-size="11" font-weight="bold" fill="#fff1f2">停保流向汇总</text>
<text x="990" y="558" font-size="9" fill="#fca5a5">转居民/申请停/跨区转</text>
<rect x="976" y="711" width="168" height="58" rx="6" fill="#991b1b" filter="url(#sh)"/>
<rect x="976" y="711" width="4" height="58" rx="3" fill="#fca5a5"/>
<text x="990" y="725" font-size="11" font-weight="bold" fill="#fff1f2">职工参保汇总</text>
<text x="990" y="743" font-size="9" fill="#fca5a5">类型分布+单位参保率+环比</text>
<rect x="1296" y="156" width="168" height="58" rx="6" fill="#5b21b6" filter="url(#sh)"/>
<rect x="1296" y="156" width="4" height="58" rx="3" fill="#c4b5fd"/>
<text x="1310" y="170" font-size="11" font-weight="bold" fill="#f5f3ff">核心参保看板</text>
<text x="1310" y="188" font-size="9" fill="#c4b5fd">完成率 · 缺口 · 可动员</text>
<rect x="1296" y="341" width="168" height="58" rx="6" fill="#5b21b6" filter="url(#sh)"/>
<rect x="1296" y="341" width="4" height="58" rx="3" fill="#c4b5fd"/>
<text x="1310" y="355" font-size="11" font-weight="bold" fill="#f5f3ff">风险预警看板</text>
<text x="1310" y="373" font-size="9" fill="#c4b5fd">预警标志 · 企业风险 · 停保</text>
<rect x="1296" y="526" width="168" height="58" rx="6" fill="#5b21b6" filter="url(#sh)"/>
<rect x="1296" y="526" width="4" height="58" rx="3" fill="#c4b5fd"/>
<text x="1310" y="540" font-size="11" font-weight="bold" fill="#f5f3ff">年龄看板</text>
<text x="1310" y="558" font-size="9" fill="#c4b5fd">5段参保率 · 性别 · 占比</text>
<rect x="1296" y="711" width="168" height="58" rx="6" fill="#5b21b6" filter="url(#sh)"/>
<rect x="1296" y="711" width="4" height="58" rx="3" fill="#c4b5fd"/>
<text x="1310" y="725" font-size="11" font-weight="bold" fill="#f5f3ff">职工看板</text>
<text x="1310" y="743" font-size="9" fill="#c4b5fd">类型分布 · 单位 · 环比</text>
<rect x="1408" y="808" width="218" height="178" rx="8" fill="#1e293b" stroke="#334155" stroke-width="1"/>
<text x="1420" y="824" font-size="11" font-weight="bold" fill="#94a3b8">图例</text>
<rect x="1420" y="833" width="28" height="20" rx="4" fill="#0f172a"/>
<rect x="1420" y="833" width="4" height="20" rx="2" fill="#38bdf8"/>
<text x="1456" y="847" font-size="11" fill="#e2e8f0">原始数据表</text>
<rect x="1420" y="860" width="28" height="20" rx="4" fill="#1e3a8a"/>
<rect x="1420" y="860" width="4" height="20" rx="2" fill="#93c5fd"/>
<text x="1456" y="874" font-size="11" fill="#e2e8f0">基础统计</text>
<rect x="1420" y="887" width="28" height="20" rx="4" fill="#14532d"/>
<rect x="1420" y="887" width="4" height="20" rx="2" fill="#4ade80"/>
<text x="1456" y="901" font-size="11" fill="#e2e8f0">核心计算指标</text>
<rect x="1420" y="914" width="28" height="20" rx="4" fill="#991b1b"/>
<rect x="1420" y="914" width="4" height="20" rx="2" fill="#fca5a5"/>
<text x="1456" y="928" font-size="11" fill="#e2e8f0">派生/预警指标</text>
<rect x="1420" y="941" width="28" height="20" rx="4" fill="#5b21b6"/>
<rect x="1420" y="941" width="4" height="20" rx="2" fill="#c4b5fd"/>
<text x="1456" y="955" font-size="11" fill="#e2e8f0">看板展示面板</text>
</svg>